<svg width="19" height="23" viewBox="0 0 19 23" fill="none" xmlns="http://www.w3.org/2000/svg">
<g id="Group">
<path id="Vector" d="M2.72882 1.84596C2.83123 1.85815 2.92728 1.85687 3.01443 1.85623H3.03987C3.05387 1.85623 3.0685 1.85623 3.07804 1.85623C3.32548 1.85687 3.57292 1.85623 3.82608 1.85687V2.57253C3.82608 3.42811 3.82671 4.28434 3.82481 5.13992C3.82417 5.42041 3.85279 5.74198 4.05889 6.03209C3.7841 6.95379 3.74275 7.8697 3.93549 8.75546C4.44563 11.0988 5.89464 12.6367 8.12668 13.2035C8.64891 13.3363 9.16478 13.4031 9.65966 13.4031H9.66029C11.2906 13.4031 12.758 12.6656 13.9049 11.2709C15.1364 9.77279 15.4907 8.01155 14.9596 6.03402C15.165 5.70475 15.1911 5.35815 15.1905 5.08793C15.1873 4.25674 15.1879 3.41784 15.1885 2.6059V1.8742H15.2642V2.25931C15.2636 2.73363 15.263 3.22401 15.2668 3.71053C15.2706 4.21694 15.6294 4.61104 16.1191 4.64827C16.5644 4.68228 16.9849 4.3665 17.0784 3.9294C17.1025 3.81515 17.1025 3.71181 17.1019 3.62837V3.59884C17.1019 3.34082 17.1013 3.0828 17.1006 2.82478C17.0994 2.25353 17.0975 1.66303 17.1064 1.08087C17.114 0.592426 16.9034 0.233633 16.497 0.0430039L16.4098 0H2.57107L2.45912 0.0744544C2.4464 0.0827985 2.43368 0.0911425 2.41968 0.0994865C2.37452 0.127728 2.31855 0.16303 2.26066 0.21181C1.96234 0.46534 1.85229 0.818999 1.95788 1.18228C2.06665 1.55392 2.3548 1.80167 2.72882 1.84596ZM5.6841 4.78819V1.86714H13.3286V4.78819H5.6841ZM5.79223 6.6611C6.72092 6.6656 7.66297 6.66495 8.57449 6.66495H10.4395C11.3517 6.6656 12.2943 6.66624 13.2243 6.6611C13.5392 7.87163 13.2739 9.11682 12.489 10.0937C11.6799 11.1001 10.4802 11.6207 9.19786 11.5205C8.05099 11.432 7.01352 10.8254 6.35199 9.85687C5.70763 8.91271 5.50599 7.75417 5.79223 6.6611Z" fill="white"/>
<path id="Vector_2" d="M18.9319 18.3824C18.7723 17.0622 18.1273 15.8324 17.1159 14.919C16.1096 14.0108 14.826 13.4916 13.5029 13.4569C13.1238 13.446 12.8115 13.5712 12.5481 13.8401C11.886 14.5166 11.2149 15.1931 10.5648 15.8478C10.2391 16.1758 9.91346 16.5044 9.58842 16.833C9.5617 16.86 9.53498 16.8876 9.51018 16.9145C9.16224 16.5628 8.81366 16.2111 8.46508 15.8593C7.80164 15.1899 7.11593 14.498 6.43532 13.8074C6.19679 13.5654 5.91818 13.4505 5.57978 13.4563C4.5913 13.4749 3.68805 13.7271 2.89421 14.2053C0.625912 15.5712 -0.293874 17.6848 0.0814188 20.6668C0.251255 22.0172 1.43629 22.998 2.8993 22.9993C4.83937 23.0006 6.77944 23.0006 8.71952 23.0006L16.1198 22.9999C16.198 22.9999 16.268 22.9986 16.3335 22.9954C17.7049 22.9287 18.888 21.7945 18.9707 20.4672C19.0204 19.6854 19.007 19.0038 18.9319 18.3824ZM17.1413 20.2958C17.1095 20.7778 16.663 21.1418 16.1026 21.1424C14.6587 21.1443 13.2148 21.1437 11.7702 21.1437L9.51399 21.143H7.19672C5.77315 21.143 4.34958 21.143 2.92538 21.1424C2.38915 21.1418 1.97442 20.8619 1.91717 20.4608C1.66655 18.7175 1.91845 16.4421 4.54104 15.4999C4.69625 15.4441 4.87563 15.4126 5.06518 15.3792C5.15423 15.3638 5.2452 15.3478 5.3387 15.3279C6.27884 16.283 7.23743 17.2496 8.16548 18.1848L8.7615 18.7855C9.25765 19.2855 9.7627 19.2836 10.2627 18.7798L10.8752 18.1623C11.7963 17.2335 12.7491 16.2733 13.6823 15.3247C15.5486 15.5487 16.9353 16.9434 17.1343 18.7997C17.1795 19.222 17.1821 19.6835 17.1413 20.2958Z" fill="white"/>
</g>
</svg>
