<svg width="20" height="26" viewBox="0 0 20 26" fill="none" xmlns="http://www.w3.org/2000/svg">
<g id="Invoice Icon">
<g id="Vector">
<path d="M12 2V9H18" fill="#280559"/>
<path d="M12 2V9H18" stroke="white" stroke-width="2" stroke-linecap="round" stroke-linejoin="round"/>
</g>
<path id="Vector_2" d="M5.66668 16.3333C5.48987 16.3333 5.3203 16.2631 5.19527 16.1381C5.07025 16.013 5.00001 15.8435 5.00001 15.6667C5.00001 15.4899 5.07025 15.3203 5.19527 15.1953C5.3203 15.0702 5.48987 15 5.66668 15H15C15.1768 15 15.3464 15.0702 15.4714 15.1953C15.5964 15.3203 15.6667 15.4899 15.6667 15.6667C15.6667 15.8435 15.5964 16.013 15.4714 16.1381C15.3464 16.2631 15.1768 16.3333 15 16.3333H5.66668ZM5.66668 19.6667C5.48987 19.6667 5.3203 19.5964 5.19527 19.4714C5.07025 19.3464 5.00001 19.1768 5.00001 19C5.00001 18.8232 5.07025 18.6536 5.19527 18.5286C5.3203 18.4036 5.48987 18.3333 5.66668 18.3333H15C15.1768 18.3333 15.3464 18.4036 15.4714 18.5286C15.5964 18.6536 15.6667 18.8232 15.6667 19C15.6667 19.1768 15.5964 19.3464 15.4714 19.4714C15.3464 19.5964 15.1768 19.6667 15 19.6667H5.66668Z" fill="white" stroke="white" stroke-width="0.5"/>
<path id="Vector_3" fill-rule="evenodd" clip-rule="evenodd" d="M11.9133 1H3C2.46957 1 1.96086 1.21071 1.58579 1.58579C1.21071 1.96086 1 2.46957 1 3V23C1 23.5304 1.21071 24.0391 1.58579 24.4142C1.96086 24.7893 2.46957 25 3 25H17.6667C18.1971 25 18.7058 24.7893 19.0809 24.4142C19.456 24.0391 19.6667 23.5304 19.6667 23V9.26933C19.6665 8.76863 19.4786 8.28619 19.14 7.91733L13.388 1.648C13.2005 1.44366 12.9727 1.28053 12.7188 1.16898C12.4649 1.05743 12.1906 0.99988 11.9133 1ZM2.33333 3C2.33333 2.82319 2.40357 2.65362 2.5286 2.5286C2.65362 2.40357 2.82319 2.33333 3 2.33333H11.9133C12.0058 2.33323 12.0974 2.35238 12.1821 2.38957C12.2668 2.42676 12.3428 2.48117 12.4053 2.54933L18.1573 8.81867C18.2704 8.94155 18.3332 9.10237 18.3333 9.26933V23C18.3333 23.1768 18.2631 23.3464 18.1381 23.4714C18.013 23.5964 17.8435 23.6667 17.6667 23.6667H3C2.82319 23.6667 2.65362 23.5964 2.5286 23.4714C2.40357 23.3464 2.33333 23.1768 2.33333 23V3Z" fill="white" stroke="white" stroke-width="0.5"/>
<path id="Vector_4" d="M7.84534 7.84393C8.03574 7.84977 8.22537 7.8173 8.40299 7.74846C8.58061 7.67962 8.7426 7.57581 8.87934 7.44319C9.01609 7.31057 9.12481 7.15184 9.19905 6.97641C9.27329 6.80098 9.31155 6.61243 9.31155 6.42193C9.31155 6.23144 9.27329 6.04289 9.19905 5.86746C9.12481 5.69203 9.01609 5.5333 8.87934 5.40068C8.7426 5.26806 8.58061 5.16425 8.40299 5.09541C8.22537 5.02657 8.03574 4.9941 7.84534 4.99993C7.47573 5.01125 7.12506 5.16603 6.86763 5.43147C6.61019 5.69691 6.46622 6.05216 6.46622 6.42193C6.46622 6.79171 6.61019 7.14695 6.86763 7.4124C7.12506 7.67784 7.47573 7.83262 7.84534 7.84393Z" fill="white"/>
<path id="Vector_5" fill-rule="evenodd" clip-rule="evenodd" d="M10.688 10.9253C10.688 9.41327 9.41467 8.3186 7.844 8.3186C6.27333 8.3186 5 9.41194 5 10.9253V11.6373C5.00035 11.7629 5.05052 11.8833 5.1395 11.972C5.22848 12.0608 5.34901 12.1106 5.47467 12.1106H10.2147C10.3401 12.1103 10.4603 12.0603 10.549 11.9716C10.6377 11.8829 10.6876 11.7627 10.688 11.6373V10.9253Z" fill="white"/>
</g>
</svg>
