<svg width="24" height="23" viewBox="0 0 24 23" fill="none" xmlns="http://www.w3.org/2000/svg">
<g id="Group 305">
<path id="Vector" d="M23.9972 4.95239C23.983 4.8825 23.9694 4.81203 23.9558 4.74214C23.9261 4.59052 23.8958 4.43417 23.8606 4.28018C23.3407 2.01365 21.3763 0.310339 18.9724 0.0408652C18.9526 0.0384962 18.9261 0.0302047 18.8976 0.021321C18.8797 0.0153985 18.8612 0.0100682 18.8432 0.00533024L18.8235 0H5.19871L5.17028 0.002369C5.10414 0.014214 5.038 0.026059 4.97124 0.0373117C4.82845 0.0621862 4.6801 0.0876529 4.53422 0.11845C3.21329 0.398584 2.08088 1.06309 1.26001 2.04148C0.437899 3.02047 0.0027381 4.22392 0.00211998 5.52154C-0.00158878 9.88642 -0.00035253 13.7947 0.00521061 17.4696C0.00582874 17.806 0.0379713 18.1625 0.101638 18.5285C0.504657 20.8584 2.67119 22.7933 5.03491 22.9337C5.93923 22.9876 6.85467 23.0006 7.76084 23.0006C8.21084 23.0006 8.65836 22.997 9.10156 22.9941C9.54414 22.9911 10.0003 22.9876 10.4509 22.9876C10.4911 22.9876 10.5307 22.9864 10.5721 22.9876C11.0357 22.9876 11.4202 22.6997 11.5506 22.2538C11.647 21.9239 11.5889 21.5904 11.3911 21.3393C11.1846 21.0781 10.8465 20.9277 10.4627 20.9265C9.76667 20.9248 9.07004 20.9248 8.37403 20.9254C7.53461 20.9254 6.66614 20.9259 5.81251 20.9224C5.4985 20.9212 5.25249 20.9011 5.03861 20.8596C3.3196 20.5268 2.16371 19.1693 2.16309 17.4808C2.16124 13.9226 2.16185 10.3644 2.16247 6.80613V5.5778C2.16309 3.54639 3.69852 2.0711 5.81436 2.06991C7.10378 2.06932 8.39381 2.06932 9.68322 2.06932H10.9732C11.7026 2.06932 12.4314 2.06873 13.1602 2.06813C14.8625 2.06636 16.6223 2.06517 18.3524 2.07287C20.0875 2.08057 21.5988 3.36694 21.7936 5.00154C21.8492 5.46764 21.8449 5.9527 21.8412 6.42176C21.8399 6.58522 21.8387 6.74809 21.8399 6.91096C21.843 7.3735 21.8424 7.84375 21.8412 8.2986C21.8405 8.81741 21.8393 9.35339 21.8442 9.88109C21.8473 10.2394 22.0136 10.5562 22.3004 10.7499C22.5848 10.9424 22.9476 10.9862 23.2956 10.8713C23.7116 10.7333 23.8865 10.4029 23.9922 10.1298L24.0021 10.105V4.98022L23.9972 4.95239Z" fill="black"/>
<path id="Vector_2" d="M6.50984 7.18202C6.81643 7.18557 7.12488 7.18616 7.43209 7.18616C7.67378 7.18616 7.91423 7.18557 8.15097 7.18498C8.38277 7.18439 8.61395 7.1838 8.84574 7.1838C9.01882 7.1838 9.39897 7.1838 9.89471 7.18439C11.6557 7.18557 14.9337 7.18853 15.5543 7.18143C16.1471 7.17432 16.6119 6.72243 16.6131 6.15151C16.6137 5.58413 16.1403 5.12099 15.5567 5.11803C13.9725 5.11092 8.03538 5.1127 6.4913 5.11744C5.99062 5.11921 5.59502 5.39757 5.45965 5.84472C5.36013 6.17401 5.41638 6.50982 5.61541 6.76685C5.81692 7.02685 6.1433 7.17787 6.50984 7.18202Z" fill="black"/>
<path id="Vector_3" d="M13.0848 9.08604C11.4369 9.07834 8.00261 9.08071 6.49191 9.08545C5.99123 9.08722 5.59563 9.36558 5.46026 9.81273C5.36074 10.142 5.41699 10.4778 5.61603 10.7349C5.81753 10.9949 6.14329 11.1459 6.51045 11.15C6.81643 11.1536 7.12549 11.1542 7.4327 11.1542C7.67439 11.1542 7.91484 11.1536 8.15158 11.153C8.38338 11.1524 8.61456 11.1518 8.84635 11.1518C9.04601 11.1524 9.36187 11.1524 9.73584 11.1524C10.8318 11.1536 12.4877 11.1559 13.083 11.1488C13.6758 11.1417 14.1406 10.6898 14.1418 10.1189C14.1418 9.55214 13.6684 9.089 13.0848 9.08604Z" fill="black"/>
<path id="Vector_4" d="M20.155 17.4362C19.862 17.2366 19.4003 16.9636 18.7821 16.6249L18.7766 16.6219C18.3241 16.3968 17.9823 16.2121 17.7597 16.0729C17.5496 15.9414 17.3938 15.8022 17.2962 15.6601C17.2034 15.5256 17.1565 15.3568 17.1565 15.1596C17.1565 14.8623 17.2442 14.639 17.4247 14.4768C17.6077 14.3121 17.8586 14.2322 18.1906 14.2322C18.5744 14.2322 18.8693 14.334 19.0924 14.5437C19.3143 14.7528 19.4225 15.0122 19.4225 15.3361V15.5766C19.4225 15.6583 19.454 15.7317 19.514 15.7886C19.5739 15.846 19.6506 15.8768 19.7359 15.8768H20.885C20.9697 15.8768 21.0463 15.8466 21.1069 15.7892C21.1669 15.7317 21.1984 15.6583 21.1984 15.5772V15.3112C21.1984 14.6461 20.9932 14.0734 20.5877 13.6091C20.1952 13.1596 19.6636 12.87 19.0077 12.7474L19.0325 11.9076C19.0325 11.8264 19.0009 11.753 18.9404 11.695C18.8804 11.6381 18.8038 11.6079 18.7191 11.6079H17.7814C17.6961 11.6079 17.6194 11.6381 17.5601 11.6956C17.5001 11.753 17.4686 11.8265 17.4686 11.9123L17.4933 12.7344C16.856 12.8481 16.3411 13.1158 15.9622 13.5309C15.5685 13.9615 15.3695 14.5135 15.3695 15.1721C15.3695 15.6707 15.4863 16.1019 15.7168 16.4525C15.9425 16.7972 16.2256 17.0838 16.5581 17.3053C16.8777 17.518 17.3098 17.7637 17.8407 18.0356C18.2938 18.2695 18.6344 18.4567 18.8532 18.5923C19.0597 18.7202 19.2185 18.86 19.3248 19.0081C19.4262 19.1484 19.4757 19.3137 19.4757 19.5121C19.4757 19.8017 19.3829 20.0273 19.1932 20.202C19.0009 20.3785 18.7339 20.4644 18.376 20.4644C17.9773 20.4644 17.6596 20.3625 17.4303 20.1618C17.2022 19.9616 17.0909 19.7075 17.0909 19.3853V19.1324C17.0909 19.0513 17.0594 18.9779 16.9988 18.9198C16.9389 18.863 16.8622 18.8328 16.7775 18.8328H15.6284C15.5431 18.8328 15.4665 18.863 15.4072 18.9204C15.3472 18.9779 15.3157 19.0513 15.3157 19.1324V19.4611C15.3157 20.1108 15.5197 20.6652 15.9214 21.1082C16.3096 21.5364 16.8424 21.8189 17.5069 21.9486L17.4946 22.7001C17.4946 22.7813 17.5261 22.8547 17.5861 22.9122C17.646 22.9696 17.7227 22.9998 17.8073 22.9998H18.745C18.8297 22.9998 18.9064 22.9696 18.9669 22.9116C19.0263 22.8541 19.0578 22.7807 19.0578 22.6972L19.0454 21.9622C19.7087 21.8485 20.2465 21.5725 20.6433 21.1402C21.0544 20.6924 21.2627 20.1233 21.2627 19.4481C21.2627 18.9749 21.1526 18.5674 20.9351 18.237C20.723 17.9142 20.4603 17.6447 20.155 17.4362Z" fill="black"/>
</g>
</svg>
